<svg width="52" height="40" viewBox="0 0 52 40" fill="none" xmlns="http://www.w3.org/2000/svg">
<path fill-rule="evenodd" clip-rule="evenodd" d="M44.1055 38.1472L25.4816 1.85275H30.8092L49.434 38.1472H44.1055ZM51.774 38.6503L32.1997 0.503949C32.0422 0.19454 31.7235 0 31.3761 0H23.9651C23.6418 0 23.3426 0.167674 23.174 0.443734C23.0063 0.718868 22.9933 1.06255 23.1406 1.34973L42.715 39.497C42.8734 39.8055 43.1921 40 43.5394 40H50.9505C51.2728 40 51.573 39.8323 51.7407 39.5563C51.9093 39.2811 51.9222 38.9384 51.774 38.6503ZM32.9778 38.1472L18.7265 11.4241L21.6455 6.59673L38.2971 38.1472H32.9778ZM22.52 4.28356C22.3634 3.98805 22.0614 3.79907 21.7279 3.7898C21.4074 3.77035 21.0813 3.95099 20.9081 4.23632L16.8691 10.9164C16.6995 11.1962 16.6903 11.5436 16.8431 11.8317L31.6049 39.5099C31.7661 39.811 32.0811 40 32.4229 40H39.8339C40.1582 40 40.4592 39.8295 40.6269 39.5516C40.7946 39.2737 40.8048 38.9282 40.6529 38.641L22.52 4.28356ZM2.5686 38.1472L15.6416 16.5266L18.305 21.5188L12.1668 32.1249C12.001 32.4121 12.001 32.765 12.1659 33.0522C12.3317 33.3384 12.6374 33.5154 12.969 33.5154H24.7034L27.1732 38.1472H2.5686ZM26.0763 32.1527C25.9151 31.8516 25.6002 31.6626 25.2583 31.6626H14.5754L20.166 22.0014C20.3272 21.7244 20.3328 21.3845 20.1827 21.1019L16.5106 14.2162C16.3531 13.9225 16.0511 13.7354 15.7176 13.7261C15.3619 13.7104 15.0719 13.8882 14.9005 14.1726L0.133156 38.5938C-0.03915 38.8809 -0.0447077 39.2376 0.119261 39.5285C0.28323 39.8203 0.590786 40 0.926134 40H28.7174C29.0426 40 29.3437 39.8295 29.5113 39.5507C29.679 39.2709 29.6883 38.9245 29.5345 38.6373L26.0763 32.1527Z" fill="#212121"/>
</svg>
