<svg width="67" height="40" viewBox="0 0 67 40" fill="none" xmlns="http://www.w3.org/2000/svg">
<path d="M18.6657 14.5278C18.6657 15.3515 18.754 16.0179 18.9086 16.5078C19.0852 16.9976 19.3046 17.5316 19.6136 18.1097C19.724 18.2877 19.7682 18.4657 19.7682 18.6216C19.7682 18.8437 19.6357 19.0659 19.3501 19.2894L17.962 20.2235C17.7633 20.3574 17.566 20.4236 17.3894 20.4236C17.1687 20.4236 16.9493 20.3118 16.7285 20.1118C16.4194 19.7778 16.1559 19.4219 15.9351 19.0659C15.7144 18.6878 15.495 18.2656 15.2521 17.7537C13.5343 19.7999 11.3749 20.8237 8.77542 20.8237C6.92512 20.8237 5.44875 20.2897 4.36976 19.2218C3.29077 18.1538 2.74023 16.7299 2.74023 14.95C2.74023 13.0597 3.40115 11.524 4.74506 10.3677C6.08897 9.21145 7.87304 8.63194 10.1414 8.63194C10.8906 8.63194 11.6619 8.69817 12.476 8.80993C13.2901 8.92169 14.1276 9.09968 15.0093 9.29975V7.67575C15.0093 5.98551 14.6574 4.80579 13.9744 4.1159C13.2694 3.42601 12.08 3.0921 10.3842 3.0921C9.61294 3.0921 8.82095 3.18041 8.0055 3.38185C7.19004 3.58192 6.39805 3.82614 5.62675 4.13798C5.2749 4.29389 5.00998 4.3822 4.85545 4.42773C4.70091 4.47188 4.59053 4.49396 4.5036 4.49396C4.19453 4.49396 4.04137 4.27182 4.04137 3.80407V2.71404C4.04137 2.35805 4.08552 2.09175 4.19591 1.93584C4.30629 1.77992 4.50498 1.62401 4.81267 1.46809C5.58397 1.06795 6.50843 0.734046 7.5888 0.466368C8.66779 0.176613 9.81301 0.0441526 11.0245 0.0441526C13.6461 0.0441526 15.5626 0.64436 16.7961 1.84615C18.0076 3.04795 18.6243 4.87202 18.6243 7.31838V14.5264L18.6657 14.5278ZM9.72195 17.9082C10.4491 17.9082 11.1983 17.7744 11.9903 17.5081C12.7837 17.2418 13.4888 16.752 14.0835 16.0842C14.4353 15.6619 14.7002 15.1942 14.8327 14.6602C14.9651 14.1262 15.0534 13.4805 15.0534 12.7244V11.7903C14.4146 11.6344 13.7316 11.5005 13.0265 11.4122C12.3215 11.3239 11.6385 11.2784 10.9555 11.2784C9.47911 11.2784 8.40011 11.5681 7.67297 12.1683C6.94582 12.7685 6.59397 13.6143 6.59397 14.7265C6.59397 15.7723 6.85889 16.5505 7.40943 17.0845C7.93789 17.6419 8.70919 17.9082 9.72195 17.9082ZM27.4108 20.3118C27.0148 20.3118 26.7499 20.2456 26.5733 20.0897C26.3967 19.9558 26.2435 19.6454 26.111 19.2218L20.9341 2.02553C20.8016 1.58123 20.7354 1.29148 20.7354 1.13556C20.7354 0.779579 20.912 0.57951 21.2639 0.57951H23.4232C23.8413 0.57951 24.1283 0.64574 24.2828 0.801656C24.4594 0.935495 24.5905 1.24595 24.723 1.66954L28.4236 16.3974L31.8592 1.66954C31.9696 1.22525 32.1021 0.935495 32.2773 0.801656C32.4539 0.667817 32.7616 0.57951 33.159 0.57951H34.921C35.339 0.57951 35.626 0.64574 35.8026 0.801656C35.9793 0.935495 36.1324 1.24595 36.2207 1.66954L39.7005 16.5754L43.5115 1.66954C43.644 1.22525 43.7985 0.935495 43.9517 0.801656C44.1283 0.667817 44.4139 0.57951 44.8113 0.57951H46.8602C47.2121 0.57951 47.4108 0.757502 47.4108 1.13556C47.4108 1.24733 47.3887 1.35771 47.3666 1.49155C47.3446 1.62539 47.3004 1.80338 47.2121 2.0476L41.9041 19.2439C41.7716 19.6882 41.6171 19.9779 41.4418 20.1118C41.2666 20.2456 40.9796 20.3339 40.6043 20.3339H38.7099C38.2918 20.3339 38.0048 20.2677 37.8282 20.1118C37.6516 19.9558 37.4984 19.6675 37.4101 19.2218L33.9965 4.87202L30.605 19.1997C30.4946 19.644 30.3622 19.9338 30.1869 20.0897C30.0103 20.2456 29.7026 20.3118 29.3052 20.3118H27.4108ZM55.7157 20.912C54.5705 20.912 53.4253 20.7782 52.3242 20.5119C51.2231 20.2456 50.3635 19.9558 49.7909 19.6219C49.4391 19.4219 49.1962 19.1997 49.1079 18.9996C49.0196 18.7996 48.9755 18.5774 48.9755 18.3774V17.2432C48.9755 16.7754 49.1521 16.5533 49.4818 16.5533C49.6143 16.5533 49.7468 16.5754 49.8778 16.6195C50.0103 16.6637 50.2076 16.7534 50.4284 16.8417C51.1776 17.1756 51.9917 17.4419 52.8513 17.6199C53.733 17.7979 54.5912 17.8862 55.4729 17.8862C56.8609 17.8862 57.9399 17.6419 58.6891 17.1521C59.4384 16.6623 59.8344 15.9503 59.8344 15.0383C59.8344 14.416 59.6357 13.9041 59.2397 13.4805C58.8437 13.0583 58.0945 12.6802 57.0155 12.3242L53.8213 11.3225C52.2138 10.8106 51.0244 10.0545 50.2973 9.05277C49.5701 8.07451 49.1962 6.98447 49.1962 5.82683C49.1962 4.89272 49.3949 4.06899 49.7909 3.35702C50.1869 2.64505 50.7167 2.02277 51.3763 1.53294C52.0372 1.02104 52.7864 0.64298 53.6667 0.376681C54.5484 0.111762 55.4729 0 56.4429 0C56.9272 0 57.4335 0.0220767 57.9192 0.0883064C58.4256 0.154536 58.8878 0.244222 59.3514 0.332529C59.7916 0.444291 60.2111 0.554673 60.607 0.688512C61.003 0.822352 61.3121 0.954811 61.5329 1.08865C61.842 1.26664 62.0613 1.44464 62.1938 1.6447C62.3263 1.8227 62.3925 2.06692 62.3925 2.37875V3.42463C62.3925 3.89238 62.2159 4.1366 61.8861 4.1366C61.7095 4.1366 61.4239 4.04829 61.0486 3.8703C59.793 3.29217 58.3828 3.00241 56.8195 3.00241C55.5639 3.00241 54.5732 3.20248 53.8903 3.6247C53.2073 4.04691 52.8554 4.69265 52.8554 5.60469C52.8554 6.22697 53.0762 6.76095 53.5163 7.18454C53.9565 7.60676 54.7719 8.03035 55.9392 8.40841L59.0672 9.41014C60.6526 9.92204 61.7992 10.634 62.4808 11.546C63.1624 12.4581 63.4936 13.504 63.4936 14.6602C63.4936 15.6164 63.2949 16.4843 62.921 17.2404C62.525 17.9965 61.9951 18.6644 61.3135 19.1983C60.6305 19.7544 59.8151 20.1545 58.8685 20.4443C57.8737 20.7561 56.8389 20.912 55.7157 20.912Z" fill="#212121"/>
<path d="M59.8781 31.724C52.6315 37.13 42.1024 40 33.0482 40C20.3611 40 8.92819 35.2618 0.293492 27.386C-0.389501 26.7637 0.227263 25.9179 1.04272 26.4077C10.3825 31.8799 21.9023 35.1956 33.8195 35.1956C41.8595 35.1956 50.6929 33.5053 58.8198 30.0338C60.0327 29.4777 61.0675 30.8341 59.8781 31.724ZM62.8957 28.2539C61.9699 27.0521 56.7722 27.6757 54.4156 27.9641C53.7105 28.0524 53.6001 27.4301 54.239 26.9624C58.3797 24.0262 65.1862 24.8706 65.9796 25.8503C66.7729 26.852 65.7588 33.7261 61.883 37.0183C61.2883 37.5302 60.7157 37.2625 60.9792 36.596C61.8609 34.3939 63.8216 29.4322 62.8957 28.2539Z" fill="#212121"/>
</svg>
