<svg width="40" height="41" viewBox="0 0 40 41" fill="none" xmlns="http://www.w3.org/2000/svg">
<path d="M18.4251 0.0117473C18.3316 0.0215851 18.0316 0.0560177 17.761 0.0806124C13.9144 0.483965 10.1269 2.11213 7.03777 4.69949C6.46717 5.17171 5.16857 6.47031 4.69635 7.04091C2.13851 10.0956 0.643151 13.5241 0.09223 17.5822C-0.0307433 18.4824 -0.0307433 21.5223 0.09223 22.4224C0.643151 26.4805 2.13851 29.909 4.69635 32.9637C5.16857 33.5343 6.46717 34.8329 7.03777 35.3051C10.0924 37.863 13.5209 39.3583 17.579 39.9092C18.4792 40.0322 21.5191 40.0322 22.4193 39.9092C26.4774 39.3583 29.9059 37.863 32.9606 35.3051C33.5312 34.8329 34.8298 33.5343 35.302 32.9637C37.8598 29.909 39.3552 26.4805 39.9061 22.4224C40.0291 21.5223 40.0291 18.4824 39.9061 17.5822C39.3552 13.5241 37.8598 10.0956 35.302 7.04091C34.8298 6.47031 33.5312 5.17171 32.9606 4.69949C29.9157 2.15148 26.4528 0.636452 22.4488 0.100288C22.0159 0.0412609 21.3863 0.0166662 20.2205 0.00682833C19.3302 -0.00300954 18.5186 0.00190939 18.4251 0.0117473ZM18.6711 2.13673C18.6711 2.71224 18.7104 3.96165 18.7645 5.14712C18.794 5.72755 18.8285 6.55885 18.8432 6.99172C18.8973 8.52642 19.0596 12.555 19.0842 12.9141L19.1088 13.2732L18.8875 13.2486C18.7645 13.2388 18.6514 13.2093 18.6317 13.1945C18.6169 13.1748 18.5825 12.8354 18.5628 12.437C18.4743 10.6858 18.1841 3.89279 18.1546 2.89916L18.125 1.80716L18.2628 1.78748C18.3366 1.77765 18.4595 1.76289 18.5382 1.75797L18.6711 1.75305V2.13673ZM23.3785 2.01867C23.3834 2.02359 23.3981 3.50911 23.4129 5.31928C23.4326 7.13437 23.4572 8.76253 23.4719 8.93962C23.4867 9.12162 23.4818 9.27902 23.4572 9.28886C23.4375 9.30362 23.3145 9.30362 23.1916 9.28886L22.9653 9.26918L22.9308 7.83777C22.9112 7.04583 22.8866 6.17025 22.8767 5.88496C22.8374 5.0143 22.803 2.05802 22.8325 1.98424C22.8521 1.93013 22.9063 1.92521 23.1128 1.95965C23.2555 1.98916 23.3736 2.01375 23.3785 2.01867ZM12.001 3.66652C12.0305 3.71079 12.2617 6.42112 12.547 9.96767C12.6404 11.1728 12.7339 12.2747 12.7487 12.4124C12.7732 12.6632 12.7683 12.6731 12.6109 12.7715C12.5224 12.8256 12.4338 12.8698 12.4142 12.8698C12.3994 12.8698 12.3699 12.742 12.3551 12.5845C12.2863 11.9451 12.0206 8.85599 11.8337 6.6228C11.7255 5.30944 11.6271 4.13382 11.6124 4.00592C11.5878 3.78949 11.5927 3.76981 11.7206 3.70095C11.878 3.61733 11.9665 3.60257 12.001 3.66652ZM25.5428 4.65522C25.6805 4.70441 25.6953 4.72901 25.7248 5.00939C25.774 5.50128 25.7592 7.85253 25.7051 7.85253C25.5625 7.85253 25.2673 7.68529 25.2427 7.59183C25.228 7.5328 25.2132 6.83431 25.2132 6.04236C25.2132 4.44371 25.1936 4.53717 25.5428 4.65522ZM16.4575 4.88641C16.4575 5.01922 16.492 5.75215 16.5313 6.52442C16.5707 7.29669 16.6149 8.27556 16.6346 8.69859C16.669 9.55448 16.6789 9.52497 16.3493 9.54464C16.187 9.54956 16.187 9.54956 16.1771 9.30362C16.1673 9.16589 16.1427 8.73794 16.1132 8.34442C16.0886 7.95091 16.0296 7.09993 15.9902 6.45063C15.9509 5.80133 15.9017 5.15695 15.8869 5.01922C15.8574 4.77328 15.8623 4.76344 15.9951 4.71425C16.0739 4.68474 16.2116 4.66014 16.3001 4.66014C16.4575 4.65522 16.4575 4.65522 16.4575 4.88641ZM30.1027 5.56031L30.2699 5.62917L30.3043 6.28831C30.3191 6.64739 30.3289 7.42458 30.3191 8.00994L30.3043 9.08226L30.0977 8.97897L29.8911 8.88059L29.8764 7.2475C29.8665 6.34734 29.8715 5.5849 29.8813 5.55047C29.901 5.47668 29.901 5.47668 30.1027 5.56031ZM21.1207 6.20469C21.1502 6.2342 21.2191 8.61988 21.224 9.82994L21.2289 10.5579L20.9977 10.5235C20.8649 10.5088 20.7567 10.494 20.7518 10.4891C20.737 10.4792 20.5894 6.83431 20.5894 6.48015V6.11615L20.8403 6.14566C20.9829 6.16534 21.1059 6.18993 21.1207 6.20469ZM32.449 6.55393C32.508 6.6228 32.5179 7.70004 32.5326 13.6421C32.5474 20.4647 32.5474 20.6418 32.4588 20.6418C32.4047 20.6418 32.3309 20.6123 32.2867 20.5778C32.2129 20.5237 32.203 19.9285 32.1784 14.0996C32.1588 10.5678 32.1342 7.36064 32.1194 6.97204L32.0899 6.26371L32.2326 6.36701C32.3162 6.42604 32.4096 6.50966 32.449 6.55393ZM28.0367 7.56231C28.0613 7.58199 28.0859 7.86237 28.0908 8.1821C28.1154 9.26918 28.1203 15.9343 28.0957 15.954C28.0859 15.9639 27.9974 15.9393 27.899 15.8999L27.7219 15.8261V11.6401V7.45902L27.8596 7.48853C27.9334 7.50821 28.0121 7.53772 28.0367 7.56231ZM14.4604 7.83777C14.4752 7.97059 14.4998 8.27064 14.5145 8.51659C14.5293 8.75761 14.5637 9.30854 14.5933 9.73648C14.6523 10.6022 14.6424 10.6563 14.3621 10.6563C14.2145 10.6563 14.1948 10.6416 14.1751 10.494C14.126 10.2038 13.9538 7.78367 13.9784 7.74431C14.003 7.70988 14.2588 7.62134 14.3768 7.6115C14.4063 7.60658 14.4457 7.70988 14.4604 7.83777ZM6.32452 9.0921C6.37863 9.61351 6.48685 10.7055 6.56555 11.5171C6.64917 12.3288 6.71804 13.0174 6.71804 13.0469C6.71804 13.106 6.33928 13.2929 6.29993 13.2535C6.27533 13.2289 5.78344 8.87567 5.78344 8.67891C5.78344 8.56086 6.1622 8.06405 6.21139 8.11815C6.22614 8.12799 6.27533 8.56578 6.32452 9.0921ZM25.6117 9.60859L25.7543 9.69221L25.7592 10.7547C25.7642 11.3351 25.774 11.9844 25.774 12.196C25.7838 12.6387 25.7297 12.7124 25.4641 12.619L25.3116 12.5649V12.1418C25.3116 11.9057 25.2969 11.222 25.2772 10.617L25.2477 9.52497H25.3608C25.4198 9.52497 25.533 9.56432 25.6117 9.60859ZM8.48393 11.5171C8.57248 12.4616 8.71512 14.0553 8.80858 15.0588L8.97583 16.8788L8.78399 17.0706L8.59707 17.2625L8.56264 16.8739C8.54296 16.6574 8.44458 15.654 8.34129 14.6407C8.23799 13.6274 8.09042 12.1566 8.01664 11.3745L7.87891 9.95784L8.07074 9.78075C8.24291 9.61843 8.26258 9.61351 8.29701 9.70205C8.31669 9.75124 8.40031 10.5678 8.48393 11.5171ZM4.79965 12.1123C4.90787 13.0814 5.19317 15.6589 5.43911 17.838C5.68506 20.0171 5.91625 22.1174 5.96052 22.511C5.99987 22.9045 6.06874 23.4997 6.10809 23.8391C6.17695 24.4146 6.17695 24.4539 6.09825 24.513C5.9802 24.6015 5.93101 24.5917 5.93101 24.4884C5.93101 24.4441 5.88674 24.0703 5.83263 23.6669C5.74409 22.993 5.59652 21.8518 5.26695 19.2891C5.19809 18.7726 5.06527 17.7445 4.97181 17.0018C4.87344 16.259 4.73079 15.1522 4.65208 14.5423C4.57338 13.9323 4.44057 12.8895 4.35695 12.2156C4.26841 11.5467 4.2143 10.9515 4.22905 10.8875C4.26349 10.7547 4.5537 10.2923 4.58322 10.3218C4.59306 10.3366 4.69143 11.1384 4.79965 12.1123ZM3.29446 14.2324C3.36824 14.8227 3.50597 15.8999 3.59943 16.6328C3.69289 17.3608 3.81095 18.2708 3.86505 18.6496L3.95851 19.3382L3.85522 19.4268C3.79619 19.476 3.73716 19.4957 3.71749 19.476C3.69781 19.4563 3.65846 19.2595 3.62894 19.0431C3.59943 18.8267 3.41743 17.5625 3.22067 16.2393L2.87143 13.829L2.98456 13.4946C3.04359 13.3125 3.10754 13.165 3.12229 13.165C3.14197 13.165 3.21575 13.647 3.29446 14.2324ZM30.2994 13.588C30.3683 13.6569 30.3781 13.9618 30.3781 16.2196V18.7726H30.2404C29.9403 18.7726 29.9453 18.8464 29.9256 16.0524L29.9108 13.5093H30.0682C30.1518 13.5093 30.2601 13.5437 30.2994 13.588ZM19.5319 14.4685C20.6435 14.6357 21.6126 14.9456 22.5718 15.4375C23.1916 15.7573 23.4867 15.9786 24.1753 16.6377C25.1985 17.6166 25.8281 18.4725 26.4184 19.6826C27.2792 21.4436 27.6137 23.0029 28.0367 27.1839C28.2285 29.0581 28.4794 32.457 28.5335 33.8491C28.5483 34.2525 28.5827 34.9165 28.6122 35.3248C28.6663 36.1905 28.7303 36.0725 27.9678 36.4414C26.9103 36.953 25.892 37.3071 24.5492 37.6367C22.9063 38.04 21.8438 38.1679 20.2205 38.1729L19.04 38.1778L19.0498 37.6121C19.0498 37.3022 19.0793 36.5791 19.1088 36.0134C19.2564 33.2736 19.2269 29.8156 19.0351 27.8972C18.9268 26.7954 18.7153 25.4574 18.5973 25.1623C18.5727 25.0983 18.6858 25.0442 19.1728 24.877C20.0631 24.5671 20.8354 24.1785 20.9534 23.9866C21.165 23.6226 20.7862 23.1012 20.3041 23.1012C20.2205 23.1012 19.9696 23.1898 19.7385 23.2931C18.6366 23.7997 16.428 24.3949 15.154 24.5277C14.2735 24.6212 12.9061 24.5671 11.9567 24.3949C11.4402 24.3015 10.5155 23.9522 9.74318 23.5538C8.85285 23.0914 8.30685 22.4765 8.14453 21.7485C8.05599 21.355 8.08058 20.568 8.19372 20.1253C8.31669 19.6383 8.66102 18.93 8.97583 18.5168C10.3777 16.6722 13.2701 15.0735 16.2362 14.5128C17.1806 14.3357 18.5186 14.316 19.5319 14.4685ZM34.7068 14.621C34.8839 14.6948 34.9035 14.7144 34.9035 14.8817C34.9134 16.2246 34.8839 19.294 34.8593 19.4219C34.8543 19.4661 34.5986 19.4711 34.4903 19.4317C34.4215 19.4071 34.4116 19.1415 34.4116 16.9722C34.4116 15.4179 34.4313 14.5423 34.4608 14.5423C34.4854 14.5423 34.5986 14.5767 34.7068 14.621ZM36.8564 17.3215L37.0334 17.3953L36.999 21.4681C36.9597 26.6576 36.9547 26.8101 36.7678 27.2577C36.4628 27.9907 36.4776 28.1382 36.5071 24.9212C36.5169 23.3127 36.5415 21.6846 36.5514 21.3058C36.5612 20.9271 36.5711 19.8597 36.576 18.93C36.576 17.8085 36.5907 17.2477 36.6252 17.2477C36.6547 17.2477 36.758 17.2821 36.8564 17.3215ZM7.27388 18.5463C7.30339 18.9447 7.29355 18.9841 7.1509 19.2989L6.9935 19.6334L6.93447 19.1415C6.84101 18.3545 6.84101 18.32 7.02793 18.202C7.11155 18.1429 7.20009 18.1036 7.21485 18.1134C7.22961 18.1233 7.25912 18.32 7.27388 18.5463ZM4.23397 21.5124C4.27824 21.9158 4.62257 24.5917 4.79965 25.905C5.06527 27.9365 5.08495 28.2268 4.9669 28.1038C4.95214 28.089 4.839 27.4053 4.72095 26.5838C3.95359 21.2812 3.95851 21.3157 4.02246 21.2763C4.15527 21.1878 4.19954 21.237 4.23397 21.5124ZM7.77561 23.7653C7.80512 23.8883 7.94777 25.2213 7.94777 25.3836C7.94777 25.5213 7.77069 25.6492 7.69199 25.5705C7.66739 25.5459 7.60344 25.1278 7.55426 24.6458C7.50015 24.1588 7.44604 23.6522 7.43128 23.5193L7.40177 23.2734L7.57393 23.4702C7.67231 23.5784 7.76085 23.7112 7.77561 23.7653ZM11.7452 25.6197C11.7993 25.6689 11.8337 25.8657 11.878 26.3969C11.9518 27.3561 11.9616 27.2823 11.7599 27.2823C11.5534 27.2823 11.5583 27.2971 11.4894 26.4314C11.4205 25.5509 11.4205 25.5607 11.5534 25.5607C11.6173 25.5607 11.7009 25.5902 11.7452 25.6197ZM15.641 25.6935C15.6508 25.7427 15.6754 26.0378 15.6951 26.3477C15.7099 26.6576 15.7541 27.3561 15.7935 27.8972C15.9312 29.8844 15.9361 30.1353 15.8525 30.1353C15.759 30.1353 15.7492 30.0615 15.641 28.6596C15.6016 28.0792 15.5279 27.1643 15.4787 26.6281C15.4344 26.0919 15.4049 25.6443 15.4196 25.6345C15.4737 25.5755 15.6164 25.6197 15.641 25.6935ZM6.39339 26.6379C6.4229 26.6822 6.60982 28.2563 6.84101 30.4059C6.90987 31.0552 6.97874 31.6799 6.9935 31.7979L7.01809 32.0094L6.89512 31.9307C6.80166 31.8668 6.76723 31.8028 6.76723 31.6897C6.76723 31.3798 6.55571 29.3384 6.39339 28.089C6.29993 27.3807 6.22614 26.756 6.22614 26.697C6.22614 26.5937 6.3442 26.5543 6.39339 26.6379ZM34.7806 28.6941L34.7461 30.7502L34.6232 30.9322C34.3428 31.3454 34.3575 31.4241 34.3723 29.122L34.3821 27.0118L34.5641 26.8249C34.6625 26.7265 34.7609 26.6429 34.7806 26.6429C34.7953 26.6429 34.7953 27.5676 34.7806 28.6941ZM30.2305 31.9553C30.2551 34.8132 30.2502 35.0346 30.1715 35.1231C30.1223 35.1772 30.0781 35.2117 30.0633 35.1969C30.0289 35.1575 29.9797 28.9253 30.019 28.8908C30.0387 28.8711 30.0879 28.8613 30.1322 28.8662C30.1961 28.881 30.2109 29.2302 30.2305 31.9553ZM14.1653 29.9976C14.1997 30.3026 14.3227 31.7635 14.3719 32.4521C14.4014 32.9145 14.4014 32.9293 14.2932 32.9637C14.2342 32.9834 14.1653 32.9785 14.1456 32.9539C14.1112 32.9194 14.003 31.8274 13.8702 30.1451L13.8357 29.7418H13.9882C14.1309 29.7418 14.1407 29.7516 14.1653 29.9976ZM10.299 31.7192C10.3335 31.7536 10.358 31.8766 10.358 31.9996C10.358 32.1275 10.4171 32.7915 10.481 33.4802C10.6679 35.3641 10.6827 35.6199 10.5991 35.5707C10.4712 35.4969 10.358 35.3838 10.3826 35.3543C10.3925 35.3346 10.3728 35.0887 10.3335 34.8083C10.299 34.523 10.2548 34.0606 10.2351 33.7753C10.2154 33.49 10.1711 32.9686 10.1318 32.6194C10.0383 31.7586 10.0432 31.6602 10.1515 31.6602C10.2006 31.6602 10.2646 31.6848 10.299 31.7192ZM12.6257 35.0297C12.6404 35.1379 12.6699 35.5412 12.6896 35.9249C12.7241 36.6627 12.7093 36.7168 12.5076 36.5644C12.4486 36.5201 12.4092 36.3332 12.3502 35.7724C12.2469 34.7591 12.242 34.7985 12.4338 34.8181C12.5765 34.8329 12.5962 34.8526 12.6257 35.0297Z" fill="#212121"/>
<path d="M10.8691 16.8247C10.3575 17.0461 10.3182 17.7396 10.8002 17.9856C11.1495 18.1627 11.5036 18.079 11.6856 17.7741C12.03 17.2133 11.4692 16.564 10.8691 16.8247Z" fill="#212121"/>
<path d="M14.2038 17.2969C13.7316 17.5871 13.7316 18.2856 14.2038 18.5758C14.6711 18.8562 15.2761 18.4873 15.2761 17.9265C15.2761 17.3855 14.6563 17.0215 14.2038 17.2969Z" fill="#212121"/>
</svg>
