<svg width="31" height="41" viewBox="0 0 31 41" fill="none" xmlns="http://www.w3.org/2000/svg">
<path d="M28.1382 18.2327C28.1382 22.5077 26.9765 26.6935 24.9809 29.9455C25.574 28.2133 25.9116 26.3923 25.9116 24.6609C25.9116 21.9296 25.1542 19.2994 23.7189 17.0243C24.6689 15.8592 25.3593 14.4231 25.731 13.0808L27.155 14.1687C27.7797 14.6365 28.1382 15.3615 28.1382 16.158V18.2327Z" fill="#212121"/>
<path d="M19.5957 35.4736C18.0269 36.5588 16.6724 37.0962 15.5006 37.098C14.914 37.0972 14.2814 36.9611 13.6007 36.6923C16.0642 34.0802 17.4627 30.5745 17.4627 26.9145C17.4627 24.7756 17.0148 22.6872 16.19 20.909C18.5869 20.7598 20.8122 19.829 22.5714 18.2378C23.7122 20.1711 24.3137 22.3755 24.3137 24.6609C24.3137 28.5896 22.2956 33.1918 19.5957 35.4736Z" fill="#212121"/>
<path d="M12.0864 35.9212C11.0481 35.2852 9.91121 34.3905 8.66216 33.2272C6.58924 31.2957 4.97207 28.5544 3.97761 25.4405L8.22998 18.0028C9.91121 19.6268 12.0498 20.6222 14.3625 20.8697C15.3313 22.5667 15.8644 24.7032 15.8644 26.9145C15.8644 30.3235 14.4902 33.5821 12.0864 35.9212Z" fill="#212121"/>
<path d="M2.86033 18.2327V16.158C2.86033 15.3615 3.21848 14.6362 3.84981 14.1636L5.2894 13.0641C5.66315 14.3931 6.27656 15.6366 7.10241 16.732L3.3891 23.2264C3.04389 21.611 2.86033 19.929 2.86033 18.2327Z" fill="#212121"/>
<path fill-rule="evenodd" clip-rule="evenodd" d="M15.4989 11.9345C16.0035 11.9345 16.3972 11.4422 16.9001 10.813L16.901 10.812C17.1081 10.5529 17.3337 10.2708 17.5931 9.99036C19.195 8.23462 21.2424 7.79516 22.7304 8.40432C24.0024 8.92469 24.6125 10.1259 24.4438 11.6573C24.1289 13.5647 23.2725 15.2989 21.9507 16.6524C20.2611 18.3826 17.9934 19.3352 15.4989 19.3352C13.0048 19.3352 10.7371 18.3826 9.04752 16.6524C7.72544 15.2989 6.86907 13.5647 6.55439 11.6573C6.38544 10.1259 6.99586 8.92469 8.26748 8.40432C9.7562 7.79516 11.8035 8.23462 13.4051 9.99036C13.6646 10.2708 13.8902 10.553 14.0972 10.812L14.0983 10.8134C14.601 11.4423 14.9944 11.9345 15.4989 11.9345ZM10.3276 10.5273C9.63722 10.5273 9.0756 11.2696 9.0756 12.182C9.0756 13.0947 9.63722 13.8366 10.3276 13.8366C11.0181 13.8366 11.5794 13.0947 11.5794 12.182C11.5794 11.2696 11.0181 10.5273 10.3276 10.5273ZM16.5575 14.3673C16.516 13.7114 16.0894 13.2705 15.4956 13.2705C14.9021 13.2705 14.4752 13.7114 14.434 14.3673C14.4278 14.465 14.4248 14.565 14.4248 14.6647C14.4248 15.7096 14.6289 16.5615 15.1086 17.5135L15.1265 17.55L15.1271 17.5512C15.1968 17.6923 15.3017 17.9044 15.4956 17.9044C15.6905 17.9044 15.7953 17.6914 15.8646 17.55L15.8829 17.5135C16.3623 16.5615 16.5668 15.7096 16.5668 14.6647C16.5668 14.565 16.5638 14.465 16.5575 14.3673ZM21.0768 10.8885C21.6334 10.9677 22.118 11.3839 22.2831 11.9238C22.3747 12.224 22.298 12.5203 22.0882 12.6784C21.8854 12.8307 21.5986 12.8129 21.3211 12.6313C20.8196 12.3032 20.3449 12.3314 19.7812 12.7241L19.7342 12.7579L19.7332 12.7586C19.6291 12.8347 19.4874 12.9382 19.3345 12.9382H19.3315L19.3263 12.9379C19.1971 12.9348 19.0832 12.8876 18.9979 12.8017C18.8732 12.6763 18.7985 12.4444 18.9627 12.171C19.5094 11.2576 20.2994 10.7779 21.0768 10.8885Z" fill="#212121"/>
<path d="M15.4989 5.04612C17.5127 5.04612 19.3746 4.31235 20.8606 2.98068C21.0402 2.81986 21.3061 2.8161 21.479 2.9718C22.8084 4.16928 23.7541 5.72562 24.2297 7.43766C21.9361 5.83727 19.0739 6.40204 16.908 8.4429C16.5877 8.74476 16.3693 8.97565 16.2053 9.14917C15.881 9.49207 15.7685 9.61101 15.4993 9.61101C15.2299 9.61101 15.1173 9.49205 14.7929 9.14905C14.629 8.97558 14.4104 8.74444 14.0906 8.4429C11.9244 6.40204 9.06214 5.83727 6.76881 7.43766C7.24447 5.72562 8.18982 4.16928 9.51954 2.9718C9.69247 2.8161 9.95802 2.81986 10.1376 2.98068C11.629 4.31235 13.4852 5.04612 15.4989 5.04612Z" fill="#212121"/>
<path fill-rule="evenodd" clip-rule="evenodd" d="M19.0356 0.824716C20.2547 -0.267629 22.0886 -0.280679 23.3111 0.820312L23.3159 0.824629L23.3206 0.829008C26.9418 4.15924 27.4468 8.20145 27.3406 10.6439L28.851 11.7976C30.1972 12.8081 31 14.4381 31 16.1582V18.2328C31 24.8954 28.4701 31.4842 24.2576 35.4088C21.058 38.3899 18.2434 40.0366 15.5036 40.0416H15.4994C12.757 40.0366 9.94244 38.3902 6.74238 35.4088C2.53036 31.4842 0 24.8954 0 18.2328V16.1582C0 14.4365 0.80444 12.8071 2.15539 11.7928L3.66188 10.642C3.54989 8.28055 3.97166 4.25908 7.67597 0.832161L7.68204 0.826543L7.68817 0.821012C8.91044 -0.279833 10.7448 -0.268495 11.9648 0.824741C12.9443 1.7029 14.1999 2.18658 15.4999 2.18658C16.8001 2.18658 18.0557 1.70298 19.0356 0.824716ZM28.1227 12.8146L26.0663 11.2438C26.2761 9.16302 26.1038 5.083 22.5017 1.77023C21.7473 1.09075 20.6031 1.09381 19.8409 1.77672C18.6374 2.85537 17.0956 3.44915 15.4989 3.44915C13.9027 3.44915 12.3609 2.85537 11.1576 1.77672C10.3952 1.09348 9.25067 1.09109 8.49586 1.77092C4.79018 5.1991 4.7364 9.25692 4.93589 11.2408L2.88191 12.8097C1.84562 13.5859 1.22656 14.8377 1.22656 16.158V18.2327C1.22656 24.607 3.65564 30.8299 7.56545 34.4729C10.7145 37.4067 13.2352 38.7748 15.5006 38.779C17.7634 38.7748 20.2841 37.4067 23.4328 34.4729C27.343 30.8299 29.7716 24.607 29.7716 18.2327V16.158C29.7716 14.8377 29.153 13.5859 28.1227 12.8146Z" fill="#212121"/>
</svg>
