<svg width="46" height="40" viewBox="0 0 46 40" fill="none" xmlns="http://www.w3.org/2000/svg">
<path d="M0 0L6 4V24L0 20V0Z" fill="#212121"/>
<path d="M46 15L40 19V32L46 28V15Z" fill="#212121"/>
<path d="M46 1L40 5V12L46 8V1Z" fill="#212121"/>
<path d="M34 0L28 4V24L34 20V0Z" fill="#212121"/>
<path d="M0 7L17 18V11L0 0V7Z" fill="#212121"/>
<path d="M34 7L17 18V11L34 0V7Z" fill="#212121"/>
<path d="M34 21L17 32V25L34 14V21Z" fill="#212121"/>
<path d="M46 29L29 40V33L46 22V29Z" fill="#212121"/>
<path d="M29 32.765L17 25V32L29 39.765V32.765Z" fill="#212121"/>
</svg>
