<svg width="40" height="40" viewBox="0 0 40 40" fill="none" xmlns="http://www.w3.org/2000/svg">
<path d="M3.86009 0C2.21281 0 0.91111 0.873636 0.294747 2.38636C0.100201 2.85364 0.00182045 3.34918 2.26989e-06 3.86009C-0.00181591 5.55281 1.08906 6.92676 1.74361 7.74858C1.85816 7.89222 1.96122 8.02017 2.07031 8.17472L2.36506 8.56534C2.65779 8.94898 2.99114 9.38409 3.09659 9.60227C3.13114 9.70227 3.17682 9.87761 3.23864 10.0994C3.52409 11.1267 4.05685 13.0359 4.90412 14.4886C5.24594 15.0741 5.72699 15.8099 6.07245 16.3281C5.84154 17.4845 5.451 19.6145 5.451 20.9091C5.451 23.1818 5.9223 25.007 6.94958 26.6761C7.32958 27.2725 8.48918 29.0909 10.451 29.0909C11.1474 29.0909 12.3045 28.8189 12.6172 27.0916C14.0081 28.8862 16.3601 31.1364 19.9965 32.7273C19.9965 32.7273 13.1797 24.7735 11.9815 19.8153C11.9815 19.8153 10.6776 21.137 9.57032 23.8352C9.23941 23.0025 9.08736 22.0636 9.08736 20.9091C9.08736 19.7691 9.58884 17.2207 9.78338 16.3352L9.95384 15.5646L9.50639 14.9148C9.49912 14.902 8.58324 13.5798 8.04688 12.6598C7.43597 11.6125 6.98543 9.99196 6.74361 9.12287C6.62543 8.69923 6.53259 8.39264 6.44531 8.18537C6.12713 7.49628 5.66122 6.89108 5.25213 6.35653L5.02486 6.05469C4.91031 5.88923 4.75898 5.6975 4.58807 5.48295C4.25534 5.06477 3.63594 4.28551 3.65412 3.78551L3.85654 3.64347L3.86009 3.63636C5.30554 3.63636 7.1675 4.66244 7.86932 5.04972C8.09841 5.17517 8.26674 5.26185 8.35583 5.30185L8.67188 5.44034L9.29333 5.46165C10.1061 5.47983 12.5763 5.53761 14.3217 6.2358C17.5054 7.50852 19.2656 8.7825 21.0547 11.108C25.2801 16.6025 26.8392 23.7182 26.8537 23.7891L27.081 24.8153L28.0753 25.1385C28.1098 25.1512 30.8927 26.0812 33.4872 28.5121C30.2236 29.3193 29.0874 30.9091 29.0874 30.9091C29.0874 30.9091 29.9528 32.5964 34.0874 35.2273C36.5874 36.8182 37.951 37.9545 39.9965 40C39.9965 40 37.9522 35.4542 35.0959 31.8324C37.2704 31.136 39.9432 30.7741 39.9432 30.7741L38.2884 28.4801C35.5647 24.7038 31.9122 22.7979 30.174 22.0561C29.5704 19.7543 27.7473 13.8448 23.9382 8.89205C21.7582 6.0575 19.4384 4.36239 15.6712 2.85511C13.4403 1.9642 10.7578 1.85793 9.56321 1.82884C8.51776 1.25429 6.19463 0 3.86009 0ZM11.2465 7.27273C11.2465 7.27273 10.451 7.27273 9.54191 7.5L12.0419 10.9055C12.7237 10.0001 12.7237 8.94176 12.7237 8.94176C12.7237 8.94176 12.2701 7.72727 11.2465 7.27273Z" fill="#212121"/>
</svg>
