<svg width="38" height="40" viewBox="0 0 38 40" fill="none" xmlns="http://www.w3.org/2000/svg">
<path fill-rule="evenodd" clip-rule="evenodd" d="M2.76129 17.9467C1.95731 18.6725 1.62479 19.3677 1.62479 20C1.62479 20.6322 1.95731 21.3274 2.76129 22.0532C3.56517 22.7789 4.77403 23.4696 6.33696 24.0664C9.45723 25.2578 13.8227 26.0117 18.6851 26.0117C23.5474 26.0117 27.9129 25.2578 31.0332 24.0664C32.5961 23.4696 33.805 22.7789 34.6088 22.0532C35.4128 21.3274 35.7453 20.6322 35.7453 20C35.7453 19.3677 35.4128 18.6725 34.6088 17.9467C33.805 17.2211 32.5961 16.5303 31.0332 15.9335C27.9129 14.7422 23.5474 13.9883 18.6851 13.9883C13.8227 13.9883 9.45723 14.7422 6.33696 15.9335C4.77403 16.5303 3.56517 17.2211 2.76129 17.9467ZM5.7574 14.4156C9.10576 13.1372 13.6766 12.3635 18.6851 12.3635C23.6935 12.3635 28.2644 13.1372 31.6127 14.4156C33.2841 15.0538 34.6926 15.8335 35.6976 16.7407C36.7024 17.6478 37.3701 18.7478 37.3701 20C37.3701 21.2521 36.7024 22.3522 35.6976 23.2593C34.6926 24.1664 33.2841 24.9461 31.6127 25.5843C28.2644 26.8628 23.6935 27.6365 18.6851 27.6365C13.6766 27.6365 9.10576 26.8628 5.7574 25.5843C4.08601 24.9461 2.67747 24.1664 1.67255 23.2593C0.66771 22.3522 0 21.2521 0 20C0 18.7478 0.66771 17.6478 1.67255 16.7407C2.67747 15.8335 4.08601 15.0538 5.7574 14.4156Z" fill="#212121"/>
<path fill-rule="evenodd" clip-rule="evenodd" d="M12.5005 5.18298C11.4699 4.8496 10.7016 4.90923 10.1541 5.22536C9.60652 5.54149 9.17072 6.17706 8.94417 7.2362C8.71766 8.29523 8.72387 9.68752 8.98853 11.3394C9.5169 14.6374 11.0467 18.7949 13.4779 23.0058C15.9091 27.2168 18.7447 30.6204 21.3366 32.727C22.6349 33.7821 23.8375 34.4837 24.868 34.817C25.8985 35.1504 26.6668 35.0907 27.2143 34.7746C27.7619 34.4585 28.1977 33.8229 28.4242 32.7638C28.6507 31.7047 28.6445 30.3125 28.3799 28.6605C27.8515 25.3626 26.3217 21.205 23.8905 16.9941C21.4593 12.7832 18.6237 9.37956 16.0318 7.27301C14.7335 6.21785 13.5309 5.51633 12.5005 5.18298ZM17.0565 6.01214C19.8379 8.27267 22.7934 11.8443 25.2976 16.1817C27.8018 20.5192 29.4172 24.8645 29.9842 28.4035C30.2672 30.1701 30.2962 31.7797 30.0131 33.1036C29.7299 34.4274 29.1111 35.5556 28.0267 36.1817C26.9423 36.8078 25.6558 36.7796 24.3678 36.3629C23.0797 35.9462 21.7002 35.1162 20.3119 33.9878C17.5305 31.7273 14.575 28.1557 12.0708 23.8182C9.56657 19.4808 7.9512 15.1355 7.3842 11.5965C7.10118 9.82992 7.07216 8.22024 7.35533 6.89636C7.63847 5.5726 8.25726 4.44434 9.34167 3.81825C10.4261 3.19217 11.7126 3.22041 13.0006 3.63708C14.2887 4.05379 15.6682 4.88376 17.0565 6.01214Z" fill="#212121"/>
<path fill-rule="evenodd" clip-rule="evenodd" d="M28.4247 7.23618C28.1982 6.17703 27.7624 5.54146 27.2148 5.22533C26.6673 4.9092 25.899 4.84958 24.8684 5.18296C23.838 5.5163 22.6354 6.21782 21.3371 7.27298C18.7452 9.37953 15.9096 12.7832 13.4784 16.9941C11.0472 21.205 9.51739 25.3626 8.98901 28.6605C8.72435 30.3124 8.71814 31.7047 8.94466 32.7637C9.1712 33.8229 9.607 34.4585 10.1546 34.7746C10.7021 35.0907 11.4704 35.1503 12.5009 34.817C13.5313 34.4836 14.734 33.7821 16.0323 32.7269C18.6242 30.6204 21.4598 27.2167 23.891 23.0058C26.3222 18.7949 27.852 14.6373 28.3804 11.3394C28.645 9.68749 28.6512 8.2952 28.4247 7.23618ZM29.9847 11.5964C29.4177 15.1354 27.8023 19.4808 25.2981 23.8182C22.7939 28.1557 19.8384 31.7273 17.057 33.9878C15.6687 35.1162 14.2891 35.9462 13.0011 36.3629C11.7131 36.7795 10.4266 36.8078 9.34216 36.1817C8.25774 35.5556 7.63895 34.4273 7.35581 33.1036C7.07264 31.7797 7.10166 30.17 7.38469 28.4035C7.95168 24.8645 9.56705 20.5192 12.0713 16.1817C14.5755 11.8443 17.531 8.27264 20.3124 6.01211C21.7007 4.88373 23.0802 4.05376 24.3683 3.63705C25.6563 3.22038 26.9428 3.19214 28.0272 3.81822C29.1116 4.44431 29.7304 5.57257 30.0136 6.89633C30.2967 8.22021 30.2677 9.82989 29.9847 11.5964Z" fill="#212121"/>
<path d="M18.6853 23.3308C20.5249 23.3308 22.0161 21.8395 22.0161 19.9999C22.0161 18.1604 20.5249 16.6691 18.6853 16.6691C16.8457 16.6691 15.3545 18.1604 15.3545 19.9999C15.3545 21.8395 16.8457 23.3308 18.6853 23.3308Z" fill="#212121"/>
</svg>
