<svg width="18" height="40" viewBox="0 0 18 40" fill="none" xmlns="http://www.w3.org/2000/svg">
<path fill-rule="evenodd" clip-rule="evenodd" d="M11.9961 3.38021C11.9961 1.51269 10.4803 0 8.60899 0C6.7379 0 5.22232 1.51269 5.22254 3.38021C5.22254 4.75542 6.0492 5.93997 7.2316 6.46781V7.92731L7.23204 8.00918C7.2725 10.7106 9.30764 12.9877 12.0005 13.3216L12.4476 13.3798C13.6979 13.5533 14.3222 14.4832 14.4894 15.2999C14.6583 16.1252 14.4405 17.2387 13.3249 17.8817C12.7849 18.1956 12.1828 18.3879 11.5606 18.4453L5.41356 19.0219L5.36382 19.0267C4.37576 19.1273 3.42023 19.4355 2.56016 19.9313C0.626935 21.0492 -0.337465 23.1786 0.106929 25.361C0.5469 27.5435 2.26257 29.1316 4.47569 29.4112L4.88471 29.4644L4.92606 29.4697C6.28776 29.661 7.31141 30.8312 7.31141 32.206V33.5013L7.27493 33.5167C6.07219 34.0355 5.23138 35.2318 5.23138 36.6198C5.23138 38.4873 6.74696 40 8.61828 40C10.4894 40 12.005 38.4873 12.005 36.6198C12.005 35.2402 11.1739 34.0512 9.98706 33.5278V32.2057L9.98661 32.1239C9.94615 29.4227 7.91101 27.1454 5.21812 26.8115L4.77107 26.7532C3.52102 26.5798 2.89644 25.6499 2.72907 24.8332C2.56016 24.0079 2.77815 22.8946 3.89378 22.2514C4.43375 21.9376 5.03589 21.7453 5.65809 21.688L11.8049 21.1112L11.8548 21.1063C12.8428 21.0058 13.7983 20.6975 14.6583 20.2018C16.5917 19.0839 17.5517 16.9547 17.1117 14.772C16.6718 12.5896 14.9561 11.0015 12.743 10.7221L12.3339 10.6687L12.2926 10.6632C10.9307 10.4721 9.90702 9.30186 9.90702 7.92731V6.50311L9.94372 6.48767C11.1509 5.96887 11.9961 4.77263 11.9961 3.38021ZM14.5782 24.6955L12.6804 22.6194L12.6092 22.6322C12.4191 22.6653 12.2263 22.6905 12.033 22.7126L11.9517 22.7216L9.37375 22.9655L12.6006 26.4966L12.6295 26.5288C13.5846 27.5913 14.1125 28.9686 14.1117 30.396H16.7914V30.3327C16.7759 28.2439 15.9906 26.2459 14.5782 24.6955ZM4.35321 13.5023C3.39824 12.4399 2.87043 11.0626 2.87123 9.63529V9.63507H0.195586L0.195807 9.6984C0.210406 11.7857 0.99879 13.7937 2.40893 15.3352L4.32469 17.4335L4.39323 17.4196C4.64838 17.3692 4.90591 17.3317 5.16483 17.3071L5.23558 17.3004L7.61784 17.0745L4.38239 13.5345L4.35321 13.5023Z" fill="#212121"/>
</svg>
