<svg width="46" height="40" viewBox="0 0 46 40" fill="none" xmlns="http://www.w3.org/2000/svg">
<path fill-rule="evenodd" clip-rule="evenodd" d="M3.1052 40C2.75746 39.908 2.4214 39.7719 2.10549 39.5939C1.62766 39.3241 1.20819 38.962 0.871468 38.5287C0.534746 38.0955 0.287477 37.5996 0.144028 37.0699C0.0482214 36.7162 0 36.3521 0 35.9872C0 35.8057 0.0119247 35.6241 0.0358524 35.4434C0.107897 34.8994 0.28732 34.3751 0.563699 33.9011L3.21851 29.3396C4.33658 29.7275 5.37514 30.3148 6.28385 31.0729L3.60167 35.6345C3.54839 35.7365 3.52133 35.8501 3.52294 35.9652C3.52455 36.0803 3.55478 36.1931 3.6109 36.2936C3.66702 36.3941 3.74727 36.479 3.8444 36.5407C3.94154 36.6024 4.05251 36.639 4.1673 36.6471H13.8469C13.4865 34.239 12.5265 31.96 11.0551 30.0199C9.58363 28.0798 7.64805 26.5408 5.42628 25.5444L10.9822 15.9378C14.9343 17.8657 18.3145 20.7922 20.7883 24.4276C23.2621 28.0631 24.7437 32.2815 25.0865 36.6654H29.3013C28.9579 31.5511 27.2826 26.6156 24.4419 22.349C21.6012 18.0823 17.6939 14.6329 13.1079 12.3433L19.1109 2.06166C19.4899 1.43264 20.025 0.912279 20.6644 0.551051C21.3038 0.189823 22.0257 0 22.7601 0C23.4944 0 24.2164 0.189823 24.8557 0.551051C25.4951 0.912279 26.0303 1.43264 26.4093 2.06166L45.0021 33.892C45.3729 34.5224 45.5682 35.2406 45.5677 35.972C45.5701 36.5258 45.4627 37.0745 45.2516 37.5865C45.0405 38.0984 44.73 38.5634 44.338 38.9546C43.9461 39.3457 43.4804 39.6552 42.968 39.8652C42.8432 39.9163 42.7163 39.9612 42.5877 40H37C37.0466 38.9033 37.044 37.804 36.992 36.7019H41.3346C41.4567 36.7045 41.5773 36.6748 41.6842 36.6159C41.7911 36.5569 41.8805 36.4708 41.9435 36.3662C42.0065 36.2616 42.0407 36.1422 42.0427 36.0201C42.0447 35.898 42.0144 35.7776 41.955 35.671C41.8261 35.5316 39.1171 30.8575 35.7906 25.118C30.4069 15.8288 23.4056 3.74873 23.1068 3.58521C22.9469 3.49167 22.7565 3.46507 22.5771 3.5112C22.3977 3.55734 22.2438 3.67246 22.1488 3.83153L17.8884 11.13C22.7043 14.2327 26.6215 18.5451 29.2487 23.636C31.8542 28.6851 33.1002 34.3247 32.8654 40H21.6381C21.8697 36.2692 21.1371 32.5408 19.5098 29.174C17.8619 25.7646 15.3535 22.8439 12.2321 20.7L10.1247 24.3493C12.598 26.1303 14.5695 28.5199 15.8481 31.2866C17.107 34.0104 17.6523 37.0088 17.434 40H3.1052Z" fill="#212121"/>
</svg>
