<svg width="40" height="40" viewBox="0 0 40 40" fill="none" xmlns="http://www.w3.org/2000/svg">
<path d="M24.9132 29.7865C26.708 29.2734 28.4803 28.693 30.2282 28.0443C27.9143 27.4463 25.5753 26.9364 23.2169 26.5161C20.1178 27.2769 16.964 27.8467 13.7686 28.2234C17.5198 28.5158 21.2434 29.0383 24.9132 29.7865Z" fill="#212121"/>
<path d="M24.9132 21.6762C26.708 21.1637 28.4803 20.5827 30.2282 19.9344C27.9143 19.3357 25.5753 18.8261 23.2169 18.4055C20.1178 19.1663 16.964 19.7367 13.7686 20.1131C17.5198 20.4056 21.2434 20.928 24.9132 21.6762Z" fill="#212121"/>
<path d="M24.9132 13.5657C26.708 13.0539 28.4803 12.4731 30.2282 11.8239C27.9143 11.2252 25.5753 10.7156 23.2169 10.2957C20.1178 11.0561 16.964 11.6259 13.7686 12.0026C17.5198 12.2951 21.2434 12.8178 24.9132 13.5657Z" fill="#212121"/>
<path d="M31.6859 33.1072H27.9584C23.7094 34.4442 19.3397 35.4106 14.8867 35.9999H31.6859C32.4832 35.9999 33.1324 35.3519 33.1324 34.5534C33.1321 33.7565 32.4832 33.1072 31.6859 33.1072Z" fill="#212121"/>
<path d="M26.932 32.8183C27.2446 32.7245 27.5563 32.628 27.8676 32.53C29.2322 32.0983 30.5842 31.6296 31.9225 31.1223C32.312 30.9739 32.6128 30.6905 32.77 30.3215C32.9196 29.9723 32.9203 29.5876 32.7729 29.2391C32.5384 28.6866 31.9958 28.3301 31.3901 28.3301C31.2072 28.3301 31.0272 28.3627 30.8549 28.4284C25.6209 30.4086 20.1644 31.7799 14.5682 32.53C13.7488 32.6396 12.9263 32.736 12.1011 32.8183C10.9333 32.9359 9.75996 33.0259 8.58217 33.0893C8.50465 33.0938 8.42777 33.0986 8.34994 33.1024C8.2516 33.1076 8.15583 33.122 8.06102 33.1431C7.73077 33.2174 7.43192 33.3859 7.21635 33.6281C6.97227 33.9019 6.85055 34.2492 6.87393 34.606C6.91365 35.2171 7.39316 35.7364 8.02386 35.9247C8.18978 35.974 8.36627 35.9997 8.54853 35.9984C8.57768 35.9984 8.60683 35.9997 8.63662 35.9978C8.82368 35.9878 9.01043 35.9773 9.19749 35.9651C14.9154 35.6223 20.5254 34.6643 25.947 33.1072C26.2757 33.0134 26.6046 32.9176 26.932 32.8183Z" fill="#212121"/>
<path d="M8.63662 27.8877C16.6807 27.4623 24.5155 25.8214 31.9225 23.0116C32.312 22.8639 32.6128 22.5798 32.77 22.2121C32.9196 21.8617 32.9203 21.477 32.7729 21.1285C32.5384 20.5766 31.9958 20.2197 31.3901 20.2197C31.2072 20.2197 31.0272 20.253 30.8549 20.3181C23.6984 23.0254 16.1262 24.5975 8.34994 24.9924C7.90662 25.0148 7.49374 25.2064 7.21635 25.5174C6.97227 25.7913 6.85055 26.1391 6.87393 26.496C6.9255 27.2935 7.72853 27.937 8.63662 27.8877Z" fill="#212121"/>
<path d="M8.63662 19.7777C16.6807 19.352 24.5155 17.712 31.9225 14.9019C32.312 14.7545 32.6128 14.4698 32.77 14.1017C32.9196 13.7523 32.9203 13.3673 32.7729 13.0191C32.5384 12.4669 31.9958 12.1104 31.3901 12.1104C31.2072 12.1104 31.0272 12.143 30.8549 12.2077C23.6984 14.9157 16.1262 16.4878 8.34994 16.8821C7.90662 16.9048 7.49374 17.0964 7.21635 17.408C6.97227 17.6819 6.85055 18.0288 6.87393 18.3853C6.9255 19.1835 7.72853 19.8277 8.63662 19.7777Z" fill="#212121"/>
<path d="M8.63662 11.6677C16.6807 11.2426 24.5155 9.60197 31.9225 6.79186C32.312 6.64451 32.6128 6.36039 32.77 5.99171C32.9196 5.64225 32.9203 5.25723 32.7729 4.90905C32.5384 4.35651 31.9958 4 31.3901 4C31.2072 4 31.0272 4.03267 30.8549 4.09834C23.6984 6.80531 16.1262 8.37773 8.34994 8.77204C7.90662 8.79478 7.49374 8.98633 7.21635 9.29831C6.97227 9.57218 6.85055 9.91972 6.87393 10.2762C6.9255 11.0738 7.72853 11.718 8.63662 11.6677Z" fill="#212121"/>
</svg>
