<svg width="40" height="40" viewBox="0 0 40 40" fill="none" xmlns="http://www.w3.org/2000/svg">
<path fill-rule="evenodd" clip-rule="evenodd" d="M36.8149 4.6273C38.8 10.528 39.7528 15.5573 39.6844 19.7866C39.6853 19.8437 39.6893 19.8998 39.6932 19.956C39.6977 20.0199 39.7022 20.0839 39.7022 20.1489C39.7022 31.1127 30.8149 40 19.8511 40C8.88735 40 0 31.1127 0 20.1489C0 9.18511 8.88735 0.297767 19.8511 0.297767C24.7881 0.297767 29.2943 2.11117 32.7672 5.0928C32.9022 4.86551 33.0313 4.63524 33.1444 4.4L35.2586 0L36.8149 4.6273ZM21.371 33.0521C26.5353 33.1424 32.0221 32.9131 35.1219 28.6432C39.772 22.2392 37.1775 11.8779 35.0217 5.26053C33.0961 9.39651 28.3636 12.5687 24.2723 13.5732C22.5945 13.9869 21.0008 14.0707 19.4415 14.1527C17.4391 14.258 15.4934 14.3603 13.4991 15.1543C5.39684 18.3762 5.53182 28.3553 9.9884 30.5975L10.2534 30.7414C10.2534 30.7414 16.8003 29.3995 20.4251 28.0169C25.7154 25.993 31.5209 21.0164 33.4365 15.2238C32.4013 21.2447 27.4286 27.0322 22.3983 29.6774C20.786 30.533 19.1938 31.0092 17.2183 31.6001C15.9212 31.9881 14.4588 32.4254 12.7169 33.0521H14.6405H21.371ZM10.4271 35.0372C10.8738 35.0372 11.3016 34.8337 11.5815 34.4863C12.0956 33.8511 11.9963 32.9082 11.3611 32.393C11.0991 32.1767 10.7656 32.0595 10.4271 32.0595C9.6152 32.0595 8.94324 32.7315 8.94324 33.5484C8.94324 34.3652 9.61024 35.0372 10.4271 35.0372Z" fill="#212121"/>
</svg>
