<svg width="40" height="40" viewBox="0 0 40 40" fill="none" xmlns="http://www.w3.org/2000/svg">
<path d="M20 10.3128C21.4866 10.3128 22.8341 10.9159 23.8082 11.89C24.7824 12.8642 25.3855 14.2117 25.3855 15.6983C25.3855 17.1849 24.7824 18.5323 23.8082 19.5065C22.8341 20.4807 21.4866 21.0837 20 21.0837C18.5134 21.0837 17.1659 20.4807 16.1918 19.5065C15.2176 18.5323 14.6145 17.1849 14.6145 15.6983C14.6145 14.2117 15.2176 12.8642 16.1918 11.89C17.1659 10.9159 18.5134 10.3128 20 10.3128ZM20.2066 4.04076L31.1356 8.56803C31.2757 8.62559 31.3783 8.73469 31.4316 8.86441L35.9593 19.7934C36.0156 19.9309 36.0117 20.0786 35.9589 20.2066L31.432 31.1356C31.3745 31.2757 31.2654 31.3783 31.1356 31.4316L20.2066 35.9593C20.0692 36.0156 19.9214 36.0117 19.7934 35.9589L8.86437 31.432C8.72434 31.3745 8.62168 31.2654 8.56842 31.1356L4.04071 20.2066C3.98445 20.0692 3.98831 19.9214 4.04114 19.7934L8.56799 8.86441C8.62555 8.72438 8.73465 8.62172 8.86437 8.56846L19.7934 4.04076C19.9308 3.9845 20.0786 3.98836 20.2066 4.04076ZM25.2575 7.31079L20 5.13221L9.48719 9.48723L5.13216 20L9.48719 30.5128L9.68907 30.5966C9.87549 28.8849 10.4828 27.2956 11.4029 25.9362C12.4149 24.4405 13.8074 23.2194 15.4379 22.4144C15.6359 22.3169 15.8649 22.3509 16.0251 22.4827C16.66 22.9264 17.196 23.1571 17.9185 23.4135C18.5813 23.6197 19.2788 23.7249 20 23.7314C20.7319 23.7249 21.4428 23.615 22.121 23.3998C22.7439 23.228 23.4809 22.8319 24.0075 22.4591C24.1755 22.3405 24.3881 22.3311 24.5608 22.4157C26.1926 23.2198 27.5855 24.4414 28.5971 25.9366C29.5172 27.2961 30.1245 28.8853 30.3109 30.5966L30.5128 30.5128L34.8678 20L30.5128 9.48723L25.2575 7.31079ZM10.7427 31.033L20 34.8678L29.2573 31.033C29.1353 29.3832 28.5743 27.848 27.6934 26.5457C26.8446 25.291 25.6973 24.252 24.3572 23.5334C23.7661 23.9165 23.1416 24.2129 22.4921 24.4238C21.7551 24.6892 20.7865 24.8112 20.0043 24.8181C19.2011 24.8181 18.3579 24.6888 17.5912 24.45C16.9499 24.2743 16.1999 23.895 15.6424 23.5334C14.3023 24.252 13.1554 25.2906 12.3066 26.5452C11.4257 27.8476 10.8647 29.3832 10.7427 31.033ZM23.0368 12.6615C22.2602 11.8849 21.1859 11.4038 20 11.4038C18.8141 11.4038 17.7398 11.8849 16.9632 12.6615C16.1866 13.4381 15.7055 14.5123 15.7055 15.6983C15.7055 16.8842 16.1866 17.9585 16.9632 18.7351C17.7398 19.5116 18.8141 19.9927 20 19.9927C21.1859 19.9927 22.2602 19.5116 23.0368 18.7351C23.8134 17.9585 24.2945 16.8842 24.2945 15.6983C24.2945 14.5123 23.8134 13.4381 23.0368 12.6615Z" fill="#212121"/>
</svg>
