<svg width="40" height="40" viewBox="0 0 40 40" fill="none" xmlns="http://www.w3.org/2000/svg">
<path d="M39.0476 0H0.952381C0.425714 0 0 0.426667 0 0.952381V39.0476C0 39.5733 0.425714 40 0.952381 40H39.0476C39.5743 40 40 39.5733 40 39.0476V0.952381C40 0.426667 39.5743 0 39.0476 0ZM23.8095 21.3762H19.0476V36.1905H15.2381V21.3762H10.4762V18.0952H23.8095V21.3762ZM24.8771 35.3448V31.3848C24.8771 31.3848 27.04 33.0152 29.6352 33.0152C32.2305 33.0152 32.1305 31.3181 32.1305 31.0857C32.1305 28.6229 24.7771 28.6229 24.7771 23.1667C24.7771 15.7467 35.4914 18.6743 35.4914 18.6743L35.3581 22.2019C35.3581 22.2019 33.561 21.0038 31.5314 21.0038C29.5019 21.0038 28.7695 21.9686 28.7695 23C28.7695 25.6619 36.1895 25.3962 36.1895 30.7533C36.1905 39.0048 24.8771 35.3448 24.8771 35.3448Z" fill="#212121"/>
</svg>
